<?xml version="1.0" encoding="UTF-8" standalone="no"?>
<!-- Created with Inkscape (http://www.inkscape.org/) -->

<svg
   xmlns:dc="http://purl.org/dc/elements/1.1/"
   xmlns:cc="http://creativecommons.org/ns#"
   xmlns:rdf="http://www.w3.org/1999/02/22-rdf-syntax-ns#"
   xmlns:svg="http://www.w3.org/2000/svg"
   xmlns="http://www.w3.org/2000/svg"
   xmlns:sodipodi="http://sodipodi.sourceforge.net/DTD/sodipodi-0.dtd"
   xmlns:inkscape="http://www.inkscape.org/namespaces/inkscape"
   id="svg4155"
   version="1.1"
   inkscape:version="0.91 r13725"
   xml:space="preserve"
   width="319.034pt"
   height="69.283073pt"
   viewBox="0 0 398.79248 86.603842"
   sodipodi:docname="absa.svg"><metadata
     id="metadata4161"><rdf:RDF><cc:Work
         rdf:about=""><dc:format>image/svg+xml</dc:format><dc:type
           rdf:resource="http://purl.org/dc/dcmitype/StillImage" /><dc:title /></cc:Work></rdf:RDF></metadata><defs
     id="defs4159"><clipPath
       clipPathUnits="userSpaceOnUse"
       id="clipPath4169"><path
         d="m 0,0 595.276,0 0,841.89 L 0,841.89 0,0 Z"
         id="path4171"
         inkscape:connector-curvature="0" /></clipPath><clipPath
       clipPathUnits="userSpaceOnUse"
       id="clipPath4177"><path
         d="m 0,0 595.276,0 0,841.89 L 0,841.89 0,0 Z"
         id="path4179"
         inkscape:connector-curvature="0" /></clipPath></defs><sodipodi:namedview
     pagecolor="#ffffff"
     bordercolor="#666666"
     borderopacity="1"
     objecttolerance="10"
     gridtolerance="10"
     guidetolerance="10"
     inkscape:pageopacity="0"
     inkscape:pageshadow="2"
     inkscape:window-width="2493"
     inkscape:window-height="1567"
     id="namedview4157"
     showgrid="false"
     units="pt"
     inkscape:zoom="3.6149466"
     inkscape:cx="130.23011"
     inkscape:cy="79.791898"
     inkscape:window-x="67"
     inkscape:window-y="33"
     inkscape:window-maximized="1"
     inkscape:current-layer="g4163"
     fit-margin-top="0"
     fit-margin-left="0"
     fit-margin-right="0"
     fit-margin-bottom="0" /><g
     id="g4163"
     inkscape:groupmode="layer"
     inkscape:label="document(5)"
     transform="matrix(1.25,0,0,-1.25,-0.55325852,170.68978)"><text
       transform="scale(1,-1)"
       style="font-variant:normal;font-size:8.96640015px;font-family:'Nimbus Roman No9 L';-inkscape-font-specification:NimbusRomNo9L-Regu;writing-mode:lr-tb;fill:#000000;fill-opacity:1;fill-rule:nonzero;stroke:none"
       id="text4403"
       x="0.82416457"
       y="-114.18356"><tspan
         x="0.82416457"
         y="-114.18356"
         id="tspan4405">a</tspan></text>
<text
       transform="scale(1,-1)"
       style="font-variant:normal;font-size:8.96640015px;font-family:'Nimbus Roman No9 L';-inkscape-font-specification:NimbusRomNo9L-Regu;writing-mode:lr-tb;fill:#000000;fill-opacity:1;fill-rule:nonzero;stroke:none"
       id="text4411"
       x="7.6241641"
       y="-114.18356"><tspan
         x="7.6241641 12.107366 14.600024 18.581104"
         y="-114.18356"
         sodipodi:role="line"
         id="tspan4413">nice</tspan></text>
<text
       transform="scale(1,-1)"
       style="font-variant:normal;font-size:8.96640015px;font-family:'Nimbus Roman No9 L';-inkscape-font-specification:NimbusRomNo9L-Regu;writing-mode:lr-tb;fill:#000000;fill-opacity:1;fill-rule:nonzero;stroke:none"
       id="text4419"
       x="25.381165"
       y="-114.18356"><tspan
         x="25.381165 29.362246 33.845448"
         y="-114.18356"
         sodipodi:role="line"
         id="tspan4421">and</tspan></text>
<text
       transform="scale(1,-1)"
       style="font-variant:normal;font-size:8.96640015px;font-family:'Nimbus Roman No9 L';-inkscape-font-specification:NimbusRomNo9L-Regu;writing-mode:lr-tb;fill:#000000;fill-opacity:1;fill-rule:nonzero;stroke:none"
       id="text4427"
       x="41.147167"
       y="-114.18356"><tspan
         x="41.147167 45.128246 47.620907 51.60199 55.583069"
         y="-114.18356"
         sodipodi:role="line"
         id="tspan4429">clean</tspan></text>
<text
       transform="scale(1,-1)"
       style="font-variant:normal;font-size:8.96640015px;font-family:'Nimbus Roman No9 L';-inkscape-font-specification:NimbusRomNo9L-Regu;writing-mode:lr-tb;fill:#000000;fill-opacity:1;fill-rule:nonzero;stroke:none"
       id="text4435"
       x="62.885162"
       y="-114.18356"><tspan
         x="62.885162 67.368362 71.851562 74.344223 78.32531"
         y="-114.18356"
         sodipodi:role="line"
         id="tspan4437">hotel</tspan></text>
<text
       transform="scale(1,-1)"
       style="font-variant:normal;font-size:8.96640015px;font-family:'Nimbus Roman No9 L';-inkscape-font-specification:NimbusRomNo9L-Regu;writing-mode:lr-tb;fill:#000000;fill-opacity:1;fill-rule:nonzero;stroke:none"
       id="text4443"
       x="83.636169"
       y="-114.18356"><tspan
         x="83.636169 86.128822"
         y="-114.18356"
         sodipodi:role="line"
         id="tspan4445">to</tspan></text>
<text
       transform="scale(1,-1)"
       style="font-variant:normal;font-size:8.96640015px;font-family:'Nimbus Roman No9 L';-inkscape-font-specification:NimbusRomNo9L-Regu;writing-mode:lr-tb;fill:#000000;fill-opacity:1;fill-rule:nonzero;stroke:none"
       id="text4451"
       x="93.431168"
       y="-114.18356"><tspan
         x="93.431168 96.919098 99.411758 103.39284"
         y="-114.18356"
         sodipodi:role="line"
         id="tspan4453">stay</tspan></text>
<text
       transform="scale(1,-1)"
       style="font-variant:normal;font-size:8.96640015px;font-family:'Nimbus Roman No9 L';-inkscape-font-specification:NimbusRomNo9L-Regu;writing-mode:lr-tb;fill:#000000;fill-opacity:1;fill-rule:nonzero;stroke:none"
       id="text4459"
       x="110.69517"
       y="-114.18356"><tspan
         x="110.69517 113.68098 118.16418"
         y="-114.18356"
         sodipodi:role="line"
         id="tspan4461">for</tspan></text>
<text
       transform="scale(1,-1)"
       style="font-variant:normal;font-size:8.96640015px;font-family:'Nimbus Roman No9 L';-inkscape-font-specification:NimbusRomNo9L-Regu;writing-mode:lr-tb;fill:#000000;fill-opacity:1;fill-rule:nonzero;stroke:none"
       id="text4467"
       x="123.96917"
       y="-114.18356"><tspan
         x="123.96917 128.27303 132.75623 136.24416 138.73682 143.22002 147.2011 150.68903"
         y="-114.18356"
         sodipodi:role="line"
         id="tspan4469">business</tspan></text>
<text
       transform="scale(1,-1)"
       style="font-variant:normal;font-size:8.96640015px;font-family:'Nimbus Roman No9 L';-inkscape-font-specification:NimbusRomNo9L-Regu;writing-mode:lr-tb;fill:#000000;fill-opacity:1;fill-rule:nonzero;stroke:none"
       id="text4475"
       x="156.99516"
       y="-114.18356"><tspan
         x="156.99516 160.97624 165.45944"
         y="-114.18356"
         sodipodi:role="line"
         id="tspan4477">and</tspan></text>
<text
       transform="scale(1,-1)"
       style="font-variant:normal;font-size:8.96640015px;font-family:'Nimbus Roman No9 L';-inkscape-font-specification:NimbusRomNo9L-Regu;writing-mode:lr-tb;fill:#000000;fill-opacity:1;fill-rule:nonzero;stroke:none"
       id="text4483"
       x="172.76115"
       y="-114.18356"><tspan
         x="172.76115 175.25381 179.23489 181.72755 185.21548 189.69868 192.68449"
         y="-114.18356"
         sodipodi:role="line"
         id="tspan4485">leisure</tspan></text>
<text
       transform="scale(1,-1)"
       style="font-variant:normal;font-size:8.96640015px;font-family:'Nimbus Roman No9 L';-inkscape-font-specification:NimbusRomNo9L-Regu;writing-mode:lr-tb;fill:#000000;fill-opacity:1;fill-rule:nonzero;stroke:none"
       id="text4491"
       x="0.82416457"
       y="-104.22056"><tspan
         x="0.82416457"
         y="-104.22056"
         id="tspan4493">.</tspan></text>
<text
       transform="scale(1,-1)"
       style="font-variant:normal;font-size:8.96640015px;font-family:'Nimbus Roman No9 L';-inkscape-font-specification:NimbusRomNo9L-Medi;writing-mode:lr-tb;fill:#000000;fill-opacity:1;fill-rule:nonzero;stroke:none"
       id="text4503"
       x="7.1211648"
       y="-104.22056"><tspan
         x="7.1211648 11.927155 16.912472"
         y="-104.22056"
         sodipodi:role="line"
         id="tspan4505">but</tspan></text>
<text
       transform="scale(1,-1)"
       style="font-variant:normal;font-size:8.96640015px;font-family:'Nimbus Roman No9 L';-inkscape-font-specification:NimbusRomNo9L-Medi;writing-mode:lr-tb;fill:#000000;fill-opacity:1;fill-rule:nonzero;stroke:none"
       id="text4515"
       x="23.953163"
       y="-104.22056"><tspan
         x="23.953163 26.938974 31.924292"
         y="-104.22056"
         sodipodi:role="line"
         id="tspan4517">the</tspan></text>
<text
       transform="scale(1,-1)"
       style="font-variant:normal;font-size:8.96640015px;font-family:'Nimbus Roman No9 L';-inkscape-font-specification:NimbusRomNo9L-Medi;writing-mode:lr-tb;fill:#000000;fill-opacity:1;fill-rule:nonzero;stroke:none"
       id="text4527"
       x="39.961166"
       y="-104.22056"><tspan
         x="39.961166 42.453827"
         y="-104.22056"
         sodipodi:role="line"
         id="tspan4529">lo</tspan></text>
<text
       transform="scale(1,-1)"
       style="font-variant:normal;font-size:8.96640015px;font-family:'Nimbus Roman No9 L';-inkscape-font-specification:NimbusRomNo9L-Medi;writing-mode:lr-tb;fill:#000000;fill-opacity:1;fill-rule:nonzero;stroke:none"
       id="text4535"
       x="46.936165"
       y="-104.22056"><tspan
         x="46.936165 50.917248"
         y="-104.22056"
         sodipodi:role="line"
         id="tspan4537">ca</tspan></text>
<text
       transform="scale(1,-1)"
       style="font-variant:normal;font-size:8.96640015px;font-family:'Nimbus Roman No9 L';-inkscape-font-specification:NimbusRomNo9L-Medi;writing-mode:lr-tb;fill:#000000;fill-opacity:1;fill-rule:nonzero;stroke:none"
       id="text4543"
       x="55.401165"
       y="-104.22056"><tspan
         x="55.401165 58.386978 60.879639 65.362839"
         y="-104.22056"
         sodipodi:role="line"
         id="tspan4545">tion</tspan></text>
<text
       transform="scale(1,-1)"
       style="font-variant:normal;font-size:8.96640015px;font-family:'Nimbus Roman No9 L';-inkscape-font-specification:NimbusRomNo9L-Medi;writing-mode:lr-tb;fill:#000000;fill-opacity:1;fill-rule:nonzero;stroke:none"
       id="text4555"
       x="74.403168"
       y="-104.22056"><tspan
         x="74.403168 76.895828"
         y="-104.22056"
         sodipodi:role="line"
         id="tspan4557">is</tspan></text>
<text
       transform="scale(1,-1)"
       style="font-variant:normal;font-size:8.96640015px;font-family:'Nimbus Roman No9 L';-inkscape-font-specification:NimbusRomNo9L-Medi;writing-mode:lr-tb;fill:#000000;fill-opacity:1;fill-rule:nonzero;stroke:none"
       id="text4567"
       x="84.439163"
       y="-104.22056"><tspan
         x="84.439163 89.424484 93.907684"
         y="-104.22056"
         sodipodi:role="line"
         id="tspan4569">not</tspan></text>
<text
       transform="scale(1,-1)"
       style="font-variant:normal;font-size:8.96640015px;font-family:'Nimbus Roman No9 L';-inkscape-font-specification:NimbusRomNo9L-Medi;writing-mode:lr-tb;fill:#000000;fill-opacity:1;fill-rule:nonzero;stroke:none"
       id="text4579"
       x="100.94817"
       y="-104.22056"><tspan
         x="100.94817 105.43137 109.91457 114.39777"
         y="-104.22056"
         sodipodi:role="line"
         id="tspan4581">good</tspan></text>
<text
       transform="scale(1,-1)"
       style="font-variant:normal;font-size:8.96640015px;font-family:'Nimbus Roman No9 L';-inkscape-font-specification:NimbusRomNo9L-Medi;writing-mode:lr-tb;fill:#000000;fill-opacity:1;fill-rule:nonzero;stroke:none"
       id="text4591"
       x="123.43917"
       y="-104.22056"><tspan
         x="123.43917 125.93183"
         y="-104.22056"
         sodipodi:role="line"
         id="tspan4593">if</tspan></text>
<text
       transform="scale(1,-1)"
       style="font-variant:normal;font-size:8.96640015px;font-family:'Nimbus Roman No9 L';-inkscape-font-specification:NimbusRomNo9L-Medi;writing-mode:lr-tb;fill:#000000;fill-opacity:1;fill-rule:nonzero;stroke:none"
       id="text4603"
       x="132.97316"
       y="-104.22056"><tspan
         x="132.97316 137.23219 141.71539"
         y="-104.22056"
         sodipodi:role="line"
         id="tspan4605">you</tspan></text>
<text
       transform="scale(1,-1)"
       style="font-variant:normal;font-size:8.96640015px;font-family:'Nimbus Roman No9 L';-inkscape-font-specification:NimbusRomNo9L-Medi;writing-mode:lr-tb;fill:#000000;fill-opacity:1;fill-rule:nonzero;stroke:none"
       id="text4615"
       x="150.75616"
       y="-104.22056"><tspan
         x="150.75616 155.74147 159.72256 163.70364"
         y="-104.22056"
         sodipodi:role="line"
         id="tspan4617">need</tspan></text>
<text
       transform="scale(1,-1)"
       style="font-variant:normal;font-size:8.96640015px;font-family:'Nimbus Roman No9 L';-inkscape-font-specification:NimbusRomNo9L-Medi;writing-mode:lr-tb;fill:#000000;fill-opacity:1;fill-rule:nonzero;stroke:none"
       id="text4627"
       x="172.74316"
       y="-104.22056"><tspan
         x="172.74316 177.72847 182.71379"
         y="-104.22056"
         sodipodi:role="line"
         id="tspan4629">pub</tspan></text>
<text
       transform="scale(1,-1)"
       style="font-variant:normal;font-size:8.96640015px;font-family:'Nimbus Roman No9 L';-inkscape-font-specification:NimbusRomNo9L-Medi;writing-mode:lr-tb;fill:#000000;fill-opacity:1;fill-rule:nonzero;stroke:none"
       id="text4635"
       x="187.69916"
       y="-104.22056"><tspan
         x="187.69916 190.19182 192.68448"
         y="-104.22056"
         sodipodi:role="line"
         id="tspan4637">lic</tspan></text>
<text
       transform="scale(1,-1)"
       style="font-variant:normal;font-size:8.96640015px;font-family:'Nimbus Roman No9 L';-inkscape-font-specification:NimbusRomNo9L-Medi;writing-mode:lr-tb;fill:#000000;fill-opacity:1;fill-rule:nonzero;stroke:none"
       id="text4647"
       x="0.82416457"
       y="-93.124557"><tspan
         x="0.82416457 3.8099763 7.7910571 12.274259 17.259575"
         y="-93.124557"
         sodipodi:role="line"
         id="tspan4649">trans</tspan></text>
<text
       transform="scale(1,-1)"
       style="font-variant:normal;font-size:8.96640015px;font-family:'Nimbus Roman No9 L';-inkscape-font-specification:NimbusRomNo9L-Medi;writing-mode:lr-tb;fill:#000000;fill-opacity:1;fill-rule:nonzero;stroke:none"
       id="text4655"
       x="20.747164"
       y="-93.124557"><tspan
         x="20.747164 25.732483 30.215681 34.196766"
         y="-93.124557"
         sodipodi:role="line"
         id="tspan4657">port</tspan></text>
<text
       transform="scale(1,-1)"
       style="font-variant:normal;font-size:8.96640015px;font-family:'Nimbus Roman No9 L';-inkscape-font-specification:NimbusRomNo9L-Regu;writing-mode:lr-tb;fill:#000000;fill-opacity:1;fill-rule:nonzero;stroke:none"
       id="text4663"
       x="40.163166"
       y="-93.124557"><tspan
         x="40.163166"
         y="-93.124557"
         id="tspan4665">.</tspan></text>
<text
       transform="scale(1,-1)"
       style="font-variant:normal;font-size:8.96640015px;font-family:'Nimbus Roman No9 L';-inkscape-font-specification:NimbusRomNo9L-Regu;writing-mode:lr-tb;fill:#000000;fill-opacity:1;fill-rule:nonzero;stroke:none"
       id="text4671"
       x="45.385166"
       y="-93.124557"><tspan
         x="45.385166 47.877827"
         y="-93.124557"
         sodipodi:role="line"
         id="tspan4673">it</tspan></text>
<text
       transform="scale(1,-1)"
       style="font-variant:normal;font-size:8.96640015px;font-family:'Nimbus Roman No9 L';-inkscape-font-specification:NimbusRomNo9L-Regu;writing-mode:lr-tb;fill:#000000;fill-opacity:1;fill-rule:nonzero;stroke:none"
       id="text4679"
       x="53.351166"
       y="-93.124557"><tspan
         x="53.351166 55.843826 60.327026 64.810226"
         y="-93.124557"
         sodipodi:role="line"
         id="tspan4681">took</tspan></text>
<text
       transform="scale(1,-1)"
       style="font-variant:normal;font-size:8.96640015px;font-family:'Nimbus Roman No9 L';-inkscape-font-specification:NimbusRomNo9L-Regu;writing-mode:lr-tb;fill:#000000;fill-opacity:1;fill-rule:nonzero;stroke:none"
       id="text4687"
       x="72.274162"
       y="-93.124557"><tspan
         x="72.274162 74.766823 79.250023"
         y="-93.124557"
         sodipodi:role="line"
         id="tspan4689">too</tspan></text>
<text
       transform="scale(1,-1)"
       style="font-variant:normal;font-size:8.96640015px;font-family:'Nimbus Roman No9 L';-inkscape-font-specification:NimbusRomNo9L-Regu;writing-mode:lr-tb;fill:#000000;fill-opacity:1;fill-rule:nonzero;stroke:none"
       id="text4695"
       x="86.714165"
       y="-93.124557"><tspan
         x="86.714165 89.206825 93.690025 98.173225"
         y="-93.124557"
         sodipodi:role="line"
         id="tspan4697">long</tspan></text>
<text
       transform="scale(1,-1)"
       style="font-variant:normal;font-size:8.96640015px;font-family:'Nimbus Roman No9 L';-inkscape-font-specification:NimbusRomNo9L-Regu;writing-mode:lr-tb;fill:#000000;fill-opacity:1;fill-rule:nonzero;stroke:none"
       id="text4703"
       x="105.63717"
       y="-93.124557"><tspan
         x="105.63717 108.62298 113.10618"
         y="-93.124557"
         sodipodi:role="line"
         id="tspan4705">for</tspan></text>
<text
       transform="scale(1,-1)"
       style="font-variant:normal;font-size:8.96640015px;font-family:'Nimbus Roman No9 L';-inkscape-font-specification:NimbusRomNo9L-Regu;writing-mode:lr-tb;fill:#000000;fill-opacity:1;fill-rule:nonzero;stroke:none"
       id="text4711"
       x="119.07217"
       y="-93.124557"><tspan
         x="119.07217 121.56483 124.55064 128.53171 133.01491 136.50284 140.98604 145.46924 148.45505"
         y="-93.124557"
         sodipodi:role="line"
         id="tspan4713">transport</tspan></text>
<text
       transform="scale(1,-1)"
       style="font-variant:normal;font-size:8.96640015px;font-family:'Nimbus Roman No9 L';-inkscape-font-specification:NimbusRomNo9L-Regu;writing-mode:lr-tb;fill:#000000;fill-opacity:1;fill-rule:nonzero;stroke:none"
       id="text4719"
       x="153.92816"
       y="-93.124557"><tspan
         x="153.92816 157.90924 162.39244"
         y="-93.124557"
         sodipodi:role="line"
         id="tspan4721">and</tspan></text>
<text
       transform="scale(1,-1)"
       style="font-variant:normal;font-size:8.96640015px;font-family:'Nimbus Roman No9 L';-inkscape-font-specification:NimbusRomNo9L-Regu;writing-mode:lr-tb;fill:#000000;fill-opacity:1;fill-rule:nonzero;stroke:none"
       id="text4727"
       x="169.85616"
       y="-93.124557"><tspan
         x="169.85616 176.24023 180.22131 182.71397 185.20663 187.6993 192.1825"
         y="-93.124557"
         sodipodi:role="line"
         id="tspan4729">waiting</tspan></text>
<text
       transform="scale(1,-1)"
       style="font-variant:normal;font-size:8.96640015px;font-family:'Nimbus Roman No9 L';-inkscape-font-specification:NimbusRomNo9L-Regu;writing-mode:lr-tb;fill:#000000;fill-opacity:1;fill-rule:nonzero;stroke:none"
       id="text4735"
       x="0.82416457"
       y="-82.028557"><tspan
         x="0.82416457 3.8099763 8.2931767"
         y="-82.028557"
         sodipodi:role="line"
         id="tspan4737">for</tspan></text>
<text
       transform="scale(1,-1)"
       style="font-variant:normal;font-size:8.96640015px;font-family:'Nimbus Roman No9 L';-inkscape-font-specification:NimbusRomNo9L-Regu;writing-mode:lr-tb;fill:#000000;fill-opacity:1;fill-rule:nonzero;stroke:none"
       id="text4743"
       x="14.118165"
       y="-82.028557"><tspan
         x="14.118165 18.422037 22.905237"
         y="-82.028557"
         sodipodi:role="line"
         id="tspan4745">bus</tspan></text>
<text
       transform="scale(1,-1)"
       style="font-variant:normal;font-size:8.96640015px;font-family:'Nimbus Roman No9 L';-inkscape-font-specification:NimbusRomNo9L-Regu;writing-mode:lr-tb;fill:#000000;fill-opacity:1;fill-rule:nonzero;stroke:none"
       id="text4751"
       x="29.232164"
       y="-82.028557"><tspan
         x="29.232164"
         y="-82.028557"
         id="tspan4753">.</tspan></text>
<text
       transform="scale(1,-1)"
       style="font-variant:normal;font-size:8.96640015px;font-family:'Nimbus Roman No9 L';-inkscape-font-specification:NimbusRomNo9L-Regu;writing-mode:lr-tb;fill:#000000;fill-opacity:1;fill-rule:nonzero;stroke:none"
       id="text4759"
       x="34.313168"
       y="-82.028557"><tspan
         x="34.313168 38.617039 43.100239"
         y="-82.028557"
         sodipodi:role="line"
         id="tspan4761">but</tspan></text>
<text
       transform="scale(1,-1)"
       style="font-variant:normal;font-size:8.96640015px;font-family:'Nimbus Roman No9 L';-inkscape-font-specification:NimbusRomNo9L-Regu;writing-mode:lr-tb;fill:#000000;fill-opacity:1;fill-rule:nonzero;stroke:none"
       id="text4767"
       x="48.432167"
       y="-82.028557"><tspan
         x="48.432167 50.924824 55.408024"
         y="-82.028557"
         sodipodi:role="line"
         id="tspan4769">the</tspan></text>
<text
       transform="scale(1,-1)"
       style="font-variant:normal;font-size:8.96640015px;font-family:'Nimbus Roman No9 L';-inkscape-font-specification:NimbusRomNo9L-Regu;writing-mode:lr-tb;fill:#000000;fill-opacity:1;fill-rule:nonzero;stroke:none"
       id="text4775"
       x="62.228165"
       y="-82.028557"><tspan
         x="62.228165 65.716095 72.189835 74.682495 81.658356 88.634216 91.126869 95.610077"
         y="-82.028557"
         sodipodi:role="line"
         id="tspan4777">swimming</tspan></text>
<text
       transform="scale(1,-1)"
       style="font-variant:normal;font-size:8.96640015px;font-family:'Nimbus Roman No9 L';-inkscape-font-specification:NimbusRomNo9L-Regu;writing-mode:lr-tb;fill:#000000;fill-opacity:1;fill-rule:nonzero;stroke:none"
       id="text4783"
       x="102.93217"
       y="-82.028557"><tspan
         x="102.93217 107.41537 111.89857 116.38177"
         y="-82.028557"
         sodipodi:role="line"
         id="tspan4785">pool</tspan></text>
<text
       transform="scale(1,-1)"
       style="font-variant:normal;font-size:8.96640015px;font-family:'Nimbus Roman No9 L';-inkscape-font-specification:NimbusRomNo9L-Regu;writing-mode:lr-tb;fill:#000000;fill-opacity:1;fill-rule:nonzero;stroke:none"
       id="text4791"
       x="121.71317"
       y="-82.028557"><tspan
         x="121.71317 124.20582 128.68901 133.17221 137.65541"
         y="-82.028557"
         sodipodi:role="line"
         id="tspan4793">looks</tspan></text>
<text
       transform="scale(1,-1)"
       style="font-variant:normal;font-size:8.96640015px;font-family:'Nimbus Roman No9 L';-inkscape-font-specification:NimbusRomNo9L-Regu;writing-mode:lr-tb;fill:#000000;fill-opacity:1;fill-rule:nonzero;stroke:none"
       id="text4799"
       x="143.98315"
       y="-82.028557"><tspan
         x="143.98315 148.46635 152.94955 157.43275"
         y="-82.028557"
         sodipodi:role="line"
         id="tspan4801">good</tspan></text>
<text
       transform="scale(1,-1)"
       style="font-variant:normal;font-size:8.96640015px;font-family:'Nimbus Roman No9 L';-inkscape-font-specification:NimbusRomNo9L-Regu;writing-mode:lr-tb;fill:#000000;fill-opacity:1;fill-rule:nonzero;stroke:none"
       id="text4807"
       x="164.75516"
       y="-82.028557"><tspan
         x="164.75516"
         y="-82.028557"
         id="tspan4809">.</tspan></text>
<g
       id="g5271"
       transform="translate(165.71776,-37.588973)"><path
         inkscape:connector-curvature="0"
         id="rect4167"
         d="m 144.77842,149.77868 c -0.38484,0 -0.71399,-0.31064 -0.71399,-0.69847 l 0,-4.64477 c 0,-0.38783 0.32915,-0.69848 0.71399,-0.69848 l 0.496,0 1.0612,0 0.28441,0 c 0.22714,0 0.42943,0.18837 0.42943,0.42422 l 0,0.27426 0,4.64477 0,0.27411 c 0,0.23585 -0.20193,0.42436 -0.42943,0.42436 l -0.28441,0 -1.0612,0 -0.496,0 z m 0,-0.58012 0.496,0 1.0612,0 0.13372,0 0,-0.11835 0,-4.64477 0,-0.11835 -0.13372,0 -1.0612,0 -0.496,0 c -0.0848,0 -0.13387,0.0536 -0.13387,0.11835 l 0,4.64477 c 0,0.0647 0.0491,0.11835 0.13387,0.11835 z"
         style="color:#000000;font-style:normal;font-variant:normal;font-weight:normal;font-stretch:normal;font-size:medium;line-height:normal;font-family:sans-serif;text-indent:0;text-align:start;text-decoration:none;text-decoration-line:none;text-decoration-style:solid;text-decoration-color:#000000;letter-spacing:normal;word-spacing:normal;text-transform:none;direction:ltr;block-progression:tb;writing-mode:lr-tb;baseline-shift:baseline;text-anchor:start;white-space:normal;clip-rule:nonzero;display:inline;overflow:visible;visibility:visible;opacity:1;isolation:auto;mix-blend-mode:normal;color-interpolation:sRGB;color-interpolation-filters:linearRGB;solid-color:#000000;solid-opacity:1;fill:#153b87;fill-opacity:1;fill-rule:nonzero;stroke:none;stroke-width:7.81249952;stroke-linecap:butt;stroke-linejoin:miter;stroke-miterlimit:4;stroke-dasharray:none;stroke-dashoffset:0;stroke-opacity:1;color-rendering:auto;image-rendering:auto;shape-rendering:auto;text-rendering:auto;enable-background:accumulate" /><ellipse
         transform="scale(1,-1)"
         ry="0.31879252"
         rx="0.30472815"
         cy="-145.22714"
         cx="145.54994"
         id="path4189"
         style="fill:#153b87;fill-opacity:1;stroke:none;stroke-width:0.9375;stroke-miterlimit:4;stroke-dasharray:none;stroke-opacity:1" /><path
         inkscape:connector-curvature="0"
         id="path4191"
         d="m 149.35837,153.48917 c -0.13401,-5.9e-4 -0.27186,-0.0354 -0.39464,-0.11327 -0.18242,-0.11572 -0.29019,-0.30141 -0.33647,-0.47643 -0.0463,-0.17501 -0.0472,-0.34584 -0.0441,-0.50848 0.006,-0.32527 0.0137,-0.6175 -0.0595,-0.75779 0.006,0.0114 -0.0355,-0.0559 -0.0902,-0.13212 -0.0547,-0.0762 -0.12839,-0.1757 -0.21392,-0.28905 -0.17107,-0.22669 -0.38948,-0.5095 -0.6042,-0.7852 -0.42946,-0.5514 -0.84438,-1.07454 -0.84438,-1.07454 l -0.17302,-0.21827 0.4364,-0.34605 0.17302,0.21828 c 0,0 0.41592,0.52461 0.84728,1.07845 0.21567,0.27692 0.43523,0.56104 0.60942,0.79187 0.0871,0.11542 0.16278,0.21741 0.2219,0.29978 0.0591,0.0824 0.0957,0.13062 0.13154,0.19942 0.18561,0.356 0.12797,0.73203 0.12241,1.02581 -0.003,0.14689 0.004,0.27329 0.0257,0.35562 0.0218,0.0823 0.0426,0.11418 0.0964,0.14836 0.0922,0.0584 0.11384,0.0507 0.20102,0.003 0.0872,-0.0477 0.20782,-0.16913 0.31341,-0.32415 0.10559,-0.15501 0.19975,-0.33942 0.26802,-0.49818 0.0683,-0.15876 0.11272,-0.30727 0.11718,-0.33024 -0.008,0.0398 -0.0104,-0.17088 -0.0566,-0.39028 -0.0462,-0.21939 -0.1158,-0.48892 -0.18767,-0.74836 -0.14374,-0.51888 -0.2963,-0.99724 -0.2963,-0.99724 a 0.27848826,0.27848826 0 0 1 0.26439,-0.36315 l 2.89947,-0.009 c 0.33876,-0.16941 0.42671,-0.38928 0.40232,-0.56837 -0.0255,-0.18737 -0.17782,-0.3807 -0.5385,-0.43452 a 0.27848826,0.27848826 0 0 1 0.0335,-0.55373 c 0.23814,-0.006 0.48387,-0.26048 0.51631,-0.48078 0.0162,-0.11015 -0.003,-0.19501 -0.0847,-0.28063 -0.0819,-0.0856 -0.25196,-0.18002 -0.57301,-0.21146 a 0.27848826,0.27848826 0 0 1 -0.0621,-0.54097 c 0.25245,-0.0853 0.36681,-0.18923 0.40667,-0.25366 0.0399,-0.0644 0.0374,-0.0971 0.007,-0.16243 -0.0604,-0.13061 -0.32826,-0.30911 -0.60595,-0.28078 l -1.4e-4,-0.002 c -0.005,3e-4 -0.008,0.003 -0.0128,0.003 a 0.27848826,0.27848826 0 0 1 -0.0435,-0.55503 c 0.004,-4.5e-4 0.009,8.5e-4 0.0131,4.4e-4 l -1.5e-4,-0.001 c 0.17281,-0.01 0.32861,-0.18613 0.34851,-0.32487 0.01,-0.0694 -9.3e-4,-0.11299 -0.0434,-0.15881 -0.042,-0.0454 -0.13888,-0.10477 -0.34488,-0.12241 l -3.97676,0 c 1.5e-4,0 -0.12375,0.0218 -0.25656,0.068 -0.13282,0.0462 -0.29027,0.11073 -0.43887,0.17578 -0.2972,0.13009 -0.55779,0.26091 -0.55779,0.26091 a 0.27848826,0.27848826 0 0 1 -0.35678,-0.0943 l -0.0187,-0.0281 -0.15446,-0.23176 0.46338,-0.30892 0.0405,0.0606 c 0.10746,-0.0522 0.1673,-0.0841 0.36055,-0.16867 0.15665,-0.0686 0.32407,-0.13761 0.47919,-0.19159 0.15511,-0.054 0.28209,-0.0989 0.43959,-0.0989 l 3.99431,0 a 0.27848826,0.27848826 0 0 1 0.0223,8.7e-4 c 0.30587,0.0246 0.55201,0.12563 0.71356,0.30007 0.16155,0.17444 0.21568,0.40976 0.18607,0.61624 -0.021,0.14642 -0.0878,0.27949 -0.17287,0.40057 0.1862,0.10563 0.3397,0.25608 0.42813,0.44742 0.0947,0.20486 0.0952,0.47192 -0.0392,0.68905 -0.0301,0.0486 -0.0671,0.0933 -0.10732,0.13618 0.1003,0.0545 0.19186,0.11602 0.26453,0.19203 0.20177,0.211 0.27023,0.49527 0.23321,0.74662 -0.0391,0.26559 -0.18006,0.50804 -0.38215,0.68484 0.2011,0.16562 0.33833,0.38284 0.37171,0.62798 0.0616,0.45217 -0.22143,0.92881 -0.76562,1.17534 a 0.27848826,0.27848826 0 0 1 -0.11399,0.0248 l -2.60027,0.008 c 0.0578,0.18687 0.1,0.31329 0.19492,0.65598 0.0737,0.26587 0.14542,0.54302 0.19579,0.7823 0.0504,0.23927 0.0996,0.39913 0.0583,0.61145 -0.0229,0.11782 -0.0731,0.25957 -0.15228,0.4438 -0.0792,0.18422 -0.18556,0.39552 -0.31921,0.59172 -0.13365,0.1962 -0.29099,0.38153 -0.50645,0.49935 -0.10773,0.0589 -0.238,0.0924 -0.37201,0.0918 z"
         style="color:#000000;font-style:normal;font-variant:normal;font-weight:normal;font-stretch:normal;font-size:medium;line-height:normal;font-family:sans-serif;text-indent:0;text-align:start;text-decoration:none;text-decoration-line:none;text-decoration-style:solid;text-decoration-color:#000000;letter-spacing:normal;word-spacing:normal;text-transform:none;direction:ltr;block-progression:tb;writing-mode:lr-tb;baseline-shift:baseline;text-anchor:start;white-space:normal;clip-rule:nonzero;display:inline;overflow:visible;visibility:visible;opacity:1;isolation:auto;mix-blend-mode:normal;color-interpolation:sRGB;color-interpolation-filters:linearRGB;solid-color:#000000;solid-opacity:1;fill:#153b87;fill-opacity:1;fill-rule:evenodd;stroke:none;stroke-width:7.5;stroke-linecap:square;stroke-linejoin:round;stroke-miterlimit:4;stroke-dasharray:none;stroke-dashoffset:0;stroke-opacity:1;color-rendering:auto;image-rendering:auto;shape-rendering:auto;text-rendering:auto;enable-background:accumulate" /></g><g
       id="g5266"
       transform="translate(126.32535,-53.198307)"><path
         inkscape:connector-curvature="0"
         id="rect4167-9"
         d="m 192.43724,142.88753 c 0.38484,0 0.71399,0.31064 0.71399,0.69847 l 0,4.64478 c 0,0.38783 -0.32915,0.69847 -0.71399,0.69847 l -0.496,0 -1.0612,0 -0.28441,0 c -0.22714,0 -0.42943,-0.18837 -0.42943,-0.42422 l 0,-0.27425 0,-4.64478 0,-0.27411 c 0,-0.23585 0.20193,-0.42436 0.42943,-0.42436 l 0.28441,0 1.0612,0 0.496,0 z m 0,0.58013 -0.496,0 -1.0612,0 -0.13372,0 0,0.11834 0,4.64478 0,0.11834 0.13372,0 1.0612,0 0.496,0 c 0.0848,0 0.13387,-0.0536 0.13387,-0.11834 l 0,-4.64478 c 0,-0.0647 -0.0491,-0.11834 -0.13387,-0.11834 z"
         style="color:#000000;font-style:normal;font-variant:normal;font-weight:normal;font-stretch:normal;font-size:medium;line-height:normal;font-family:sans-serif;text-indent:0;text-align:start;text-decoration:none;text-decoration-line:none;text-decoration-style:solid;text-decoration-color:#000000;letter-spacing:normal;word-spacing:normal;text-transform:none;direction:ltr;block-progression:tb;writing-mode:lr-tb;baseline-shift:baseline;text-anchor:start;white-space:normal;clip-rule:nonzero;display:inline;overflow:visible;visibility:visible;opacity:1;isolation:auto;mix-blend-mode:normal;color-interpolation:sRGB;color-interpolation-filters:linearRGB;solid-color:#000000;solid-opacity:1;fill:#cd1f39;fill-opacity:1;fill-rule:nonzero;stroke:none;stroke-width:7.81249952;stroke-linecap:butt;stroke-linejoin:miter;stroke-miterlimit:4;stroke-dasharray:none;stroke-dashoffset:0;stroke-opacity:1;color-rendering:auto;image-rendering:auto;shape-rendering:auto;text-rendering:auto;enable-background:accumulate" /><ellipse
         transform="scale(-1,1)"
         ry="0.31879252"
         rx="0.30472815"
         cy="147.43907"
         cx="-191.66571"
         id="path4189-7"
         style="fill:#cd1f39;fill-opacity:1;stroke:none;stroke-width:0.9375;stroke-miterlimit:4;stroke-dasharray:none;stroke-opacity:1" /><path
         inkscape:connector-curvature="0"
         id="path4191-4"
         d="m 187.85729,139.17704 c 0.13401,6e-4 0.27186,0.0354 0.39464,0.11327 0.18242,0.11572 0.29019,0.30142 0.33647,0.47643 0.0463,0.17502 0.0472,0.34585 0.0441,0.50848 -0.006,0.32528 -0.0137,0.6175 0.0595,0.75779 -0.006,-0.0114 0.0355,0.0559 0.0902,0.13213 0.0547,0.0762 0.12839,0.1757 0.21392,0.28904 0.17107,0.22669 0.38948,0.5095 0.6042,0.7852 0.42946,0.5514 0.84438,1.07454 0.84438,1.07454 l 0.17302,0.21827 -0.4364,0.34605 -0.17302,-0.21827 c 0,0 -0.41592,-0.52462 -0.84728,-1.07846 -0.21567,-0.27692 -0.43523,-0.56103 -0.60942,-0.79187 -0.0871,-0.11542 -0.16278,-0.2174 -0.2219,-0.29978 -0.0591,-0.0824 -0.0957,-0.13062 -0.13154,-0.19942 -0.18561,-0.356 -0.12797,-0.73202 -0.12241,-1.0258 0.003,-0.1469 -0.004,-0.2733 -0.0257,-0.35562 -0.0218,-0.0823 -0.0426,-0.11419 -0.0964,-0.14837 -0.0922,-0.0584 -0.11384,-0.0507 -0.20102,-0.003 -0.0872,0.0477 -0.20782,0.16913 -0.31341,0.32414 -0.10559,0.15501 -0.19975,0.33943 -0.26802,0.49818 -0.0683,0.15876 -0.11272,0.30728 -0.11718,0.33024 0.008,-0.0398 0.0104,0.17088 0.0566,0.39028 0.0462,0.2194 0.1158,0.48892 0.18767,0.74836 0.14374,0.51888 0.2963,0.99724 0.2963,0.99724 a 0.27848826,0.27848826 0 0 1 -0.26439,0.36316 l -2.89947,0.009 c -0.33876,0.16941 -0.42671,0.38929 -0.40232,0.56838 0.0255,0.18736 0.17782,0.3807 0.5385,0.43451 a 0.27848826,0.27848826 0 0 1 -0.0335,0.55373 c -0.23814,0.006 -0.48387,0.26048 -0.51631,0.48078 -0.0162,0.11015 0.003,0.19502 0.0847,0.28064 0.0819,0.0856 0.25196,0.18001 0.57301,0.21145 a 0.27848826,0.27848826 0 0 1 0.0621,0.54097 c -0.25245,0.0853 -0.36681,0.18923 -0.40667,0.25366 -0.0399,0.0644 -0.0374,0.0971 -0.007,0.16244 0.0604,0.1306 0.32826,0.3091 0.60595,0.28078 l 1.4e-4,0.002 c 0.005,-2.9e-4 0.008,-0.003 0.0128,-0.003 a 0.27848826,0.27848826 0 0 1 0.0435,0.55504 c -0.004,4.4e-4 -0.009,-8.5e-4 -0.0131,-4.5e-4 l 1.5e-4,0.001 c -0.17281,0.01 -0.32861,0.18612 -0.34851,0.32487 -0.01,0.0694 9.3e-4,0.11298 0.0434,0.15881 0.042,0.0454 0.13888,0.10477 0.34488,0.1224 l 3.97676,0 c -1.5e-4,0 0.12375,-0.0218 0.25656,-0.068 0.13282,-0.0462 0.29027,-0.11074 0.43887,-0.17578 0.2972,-0.13009 0.55779,-0.26091 0.55779,-0.26091 a 0.27848826,0.27848826 0 0 1 0.35678,0.0943 l 0.0187,0.0281 0.15446,0.23176 -0.46338,0.30892 -0.0405,-0.0606 c -0.10746,0.0522 -0.1673,0.0841 -0.36055,0.16867 -0.15665,0.0686 -0.32407,0.1376 -0.47919,0.19158 -0.15511,0.054 -0.28209,0.0989 -0.43959,0.0989 l -3.99431,0 a 0.27848826,0.27848826 0 0 1 -0.0223,-8.7e-4 c -0.30587,-0.0246 -0.55201,-0.12563 -0.71356,-0.30007 -0.16155,-0.17444 -0.21568,-0.40977 -0.18607,-0.61624 0.021,-0.14642 0.0878,-0.2795 0.17287,-0.40058 -0.1862,-0.10563 -0.3397,-0.25608 -0.42813,-0.44742 -0.0947,-0.20485 -0.0952,-0.47191 0.0392,-0.68905 0.0301,-0.0486 0.0671,-0.0933 0.10732,-0.13618 -0.1003,-0.0545 -0.19186,-0.11602 -0.26453,-0.19202 -0.20177,-0.211 -0.27023,-0.49527 -0.23321,-0.74662 0.0391,-0.2656 0.18006,-0.50805 0.38215,-0.68484 -0.2011,-0.16562 -0.33833,-0.38284 -0.37171,-0.62799 -0.0616,-0.45217 0.22143,-0.92881 0.76562,-1.17533 a 0.27848826,0.27848826 0 0 1 0.11399,-0.0248 l 2.60027,-0.008 c -0.0578,-0.18687 -0.1,-0.31328 -0.19492,-0.65597 -0.0736,-0.26587 -0.14542,-0.54303 -0.19579,-0.7823 -0.0504,-0.23928 -0.0996,-0.39914 -0.0583,-0.61145 0.0229,-0.11783 0.0731,-0.25958 0.15228,-0.4438 0.0792,-0.18422 0.18556,-0.39553 0.31921,-0.59173 0.13365,-0.1962 0.29099,-0.38153 0.50645,-0.49934 0.10773,-0.0589 0.238,-0.0924 0.37201,-0.0918 z"
         style="color:#000000;font-style:normal;font-variant:normal;font-weight:normal;font-stretch:normal;font-size:medium;line-height:normal;font-family:sans-serif;text-indent:0;text-align:start;text-decoration:none;text-decoration-line:none;text-decoration-style:solid;text-decoration-color:#000000;letter-spacing:normal;word-spacing:normal;text-transform:none;direction:ltr;block-progression:tb;writing-mode:lr-tb;baseline-shift:baseline;text-anchor:start;white-space:normal;clip-rule:nonzero;display:inline;overflow:visible;visibility:visible;opacity:1;isolation:auto;mix-blend-mode:normal;color-interpolation:sRGB;color-interpolation-filters:linearRGB;solid-color:#000000;solid-opacity:1;fill:#cd1f39;fill-opacity:1;fill-rule:evenodd;stroke:none;stroke-width:7.5;stroke-linecap:square;stroke-linejoin:round;stroke-miterlimit:4;stroke-dasharray:none;stroke-dashoffset:0;stroke-opacity:1;color-rendering:auto;image-rendering:auto;shape-rendering:auto;text-rendering:auto;enable-background:accumulate" /></g><text
       xml:space="preserve"
       style="font-style:normal;font-weight:normal;font-size:8px;line-height:125%;font-family:sans-serif;letter-spacing:0px;word-spacing:0px;fill:#000000;fill-opacity:1;stroke:none;stroke-width:1px;stroke-linecap:butt;stroke-linejoin:miter;stroke-opacity:1"
       x="235.50748"
       y="-86.148407"
       id="text5276"
       sodipodi:linespacing="125%"
       transform="scale(1,-1)"><tspan
         sodipodi:role="line"
         id="tspan5278"
         x="235.50748"
         y="-86.148407"
         style="font-size:12px">Location</tspan></text>
<text
       xml:space="preserve"
       style="font-style:normal;font-weight:normal;font-size:8px;line-height:125%;font-family:sans-serif;letter-spacing:0px;word-spacing:0px;fill:#000000;fill-opacity:1;stroke:none;stroke-width:1px;stroke-linecap:butt;stroke-linejoin:miter;stroke-opacity:1"
       x="236.01138"
       y="-106.31791"
       id="text5276-6"
       sodipodi:linespacing="125%"
       transform="scale(1,-1)"><tspan
         sodipodi:role="line"
         x="236.01138"
         y="-106.31791"
         style="font-size:12px"
         id="tspan5316">Cleanliness</tspan></text>
<path
       style="opacity:1;fill:#ececec;fill-opacity:1;stroke:#000000;stroke-width:0.5;stroke-linecap:square;stroke-linejoin:round;stroke-miterlimit:4;stroke-dasharray:none;stroke-dashoffset:0;stroke-opacity:1"
       d="m 229.51193,100.46164 -3.7819,-7.773 -3.77787,-7.769288 0,8.201104 -16.76671,0 0,14.918934 16.76671,0 0,7.9683 3.77787,-7.77304 z"
       id="path7474-0-5-6-9"
       inkscape:connector-curvature="0"
       sodipodi:nodetypes="cccccccccc" /></g></svg>