<?xml version="1.0" encoding="UTF-8" standalone="no"?>
<!-- Created with Inkscape (http://www.inkscape.org/) -->

<svg
   xmlns:dc="http://purl.org/dc/elements/1.1/"
   xmlns:cc="http://creativecommons.org/ns#"
   xmlns:rdf="http://www.w3.org/1999/02/22-rdf-syntax-ns#"
   xmlns:svg="http://www.w3.org/2000/svg"
   xmlns="http://www.w3.org/2000/svg"
   xmlns:sodipodi="http://sodipodi.sourceforge.net/DTD/sodipodi-0.dtd"
   xmlns:inkscape="http://www.inkscape.org/namespaces/inkscape"
   id="svg4155"
   version="1.1"
   inkscape:version="0.91 r13725"
   xml:space="preserve"
   width="208.395pt"
   height="55.95805pt"
   viewBox="0 0 260.49374 69.947562"
   sodipodi:docname="attention.svg"><metadata
     id="metadata4161"><rdf:RDF><cc:Work
         rdf:about=""><dc:format>image/svg+xml</dc:format><dc:type
           rdf:resource="http://purl.org/dc/dcmitype/StillImage" /><dc:title /></cc:Work></rdf:RDF></metadata><defs
     id="defs4159"><clipPath
       clipPathUnits="userSpaceOnUse"
       id="clipPath4169"><path
         d="m 0,0 595.276,0 0,841.89 L 0,841.89 0,0 Z"
         id="path4171"
         inkscape:connector-curvature="0" /></clipPath><clipPath
       clipPathUnits="userSpaceOnUse"
       id="clipPath4177"><path
         d="m 0,0 595.276,0 0,841.89 L 0,841.89 0,0 Z"
         id="path4179"
         inkscape:connector-curvature="0" /></clipPath></defs><sodipodi:namedview
     pagecolor="#ffffff"
     bordercolor="#666666"
     borderopacity="1"
     objecttolerance="10"
     gridtolerance="10"
     guidetolerance="10"
     inkscape:pageopacity="0"
     inkscape:pageshadow="2"
     inkscape:window-width="2493"
     inkscape:window-height="1567"
     id="namedview4157"
     showgrid="false"
     units="pt"
     inkscape:zoom="3.6149466"
     inkscape:cx="123.32564"
     inkscape:cy="72.682399"
     inkscape:window-x="67"
     inkscape:window-y="33"
     inkscape:window-maximized="1"
     inkscape:current-layer="g4163"
     fit-margin-top="0"
     fit-margin-left="0"
     fit-margin-right="0"
     fit-margin-bottom="0" /><g
     id="g4163"
     inkscape:groupmode="layer"
     inkscape:label="document(5)"
     transform="matrix(1.25,0,0,-1.25,-66.340778,169.68326)"><text
       transform="scale(1,-1)"
       style="font-variant:normal;font-size:8.96640015px;font-family:'Nimbus Roman No9 L';-inkscape-font-specification:NimbusRomNo9L-ReguItal;writing-mode:lr-tb;fill:#000000;fill-opacity:1;fill-rule:nonzero;stroke:none"
       id="text4387"
       x="59.05061"
       y="-129.62256"><tspan
         x="59.05061 63.211018 67.694221 71.182152 75.163231 80.928627 87.402367 91.885567 94.378227 98.359306 103.09357 105.58623 110.06943 114.05051 118.53371 121.02637 123.51903 128.00223"
         y="-129.62256"
         sodipodi:role="line"
         id="tspan4389">Task:Hotellocation</tspan></text>
<text
       transform="scale(1,-1)"
       style="font-variant:normal;font-size:8.96640015px;font-family:'Nimbus Roman No9 L';-inkscape-font-specification:NimbusRomNo9L-Regu;writing-mode:lr-tb;fill:#000000;fill-opacity:1;fill-rule:nonzero;stroke:none"
       id="text4391"
       x="202.94762"
       y="-129.62256"><tspan
         x="202.94762 205.44026 209.42136 213.90456 217.88564 220.3783 225.65053 230.13373 233.98032 238.41869 242.39977 244.89243 247.16093 251.50963"
         y="-129.62256"
         sodipodi:role="line"
         id="tspan4393">label:negative</tspan></text>
<g
       id="g4395"
       transform="translate(53.07261,124.48256)"><path
         d="M 0,0 208.395,0"
         style="fill:none;stroke:#000000;stroke-width:0.54500002;stroke-linecap:butt;stroke-linejoin:miter;stroke-miterlimit:10;stroke-dasharray:none;stroke-opacity:1"
         id="path4397"
         inkscape:connector-curvature="0" /></g><g
       id="g4399"
       transform="translate(59.05061,113.38656)"><path
         d="m 0,0 4.579,0 0,7.572 L 0,7.572 0,0 Z"
         style="fill:#ffffff;fill-opacity:1;fill-rule:nonzero;stroke:none"
         id="path4401"
         inkscape:connector-curvature="0" /></g><text
       transform="scale(1,-1)"
       style="font-variant:normal;font-size:8.96640015px;font-family:'Nimbus Roman No9 L';-inkscape-font-specification:NimbusRomNo9L-Regu;writing-mode:lr-tb;fill:#000000;fill-opacity:1;fill-rule:nonzero;stroke:none"
       id="text4403"
       x="59.349609"
       y="-114.18356"><tspan
         x="59.349609"
         y="-114.18356"
         id="tspan4405">a</tspan></text>
<g
       id="g4407"
       transform="translate(65.85061,113.38656)"><path
         d="m 0,0 15.536,0 0,7.572 L 0,7.572 0,0 Z"
         style="fill:#ffffff;fill-opacity:1;fill-rule:nonzero;stroke:none"
         id="path4409"
         inkscape:connector-curvature="0" /></g><text
       transform="scale(1,-1)"
       style="font-variant:normal;font-size:8.96640015px;font-family:'Nimbus Roman No9 L';-inkscape-font-specification:NimbusRomNo9L-Regu;writing-mode:lr-tb;fill:#000000;fill-opacity:1;fill-rule:nonzero;stroke:none"
       id="text4411"
       x="66.149612"
       y="-114.18356"><tspan
         x="66.149612 70.632812 73.125465 77.106552"
         y="-114.18356"
         sodipodi:role="line"
         id="tspan4413">nice</tspan></text>
<g
       id="g4415"
       transform="translate(83.60761,113.38656)"><path
         d="m 0,0 13.545,0 0,7.572 L 0,7.572 0,0 Z"
         style="fill:#ffffff;fill-opacity:1;fill-rule:nonzero;stroke:none"
         id="path4417"
         inkscape:connector-curvature="0" /></g><text
       transform="scale(1,-1)"
       style="font-variant:normal;font-size:8.96640015px;font-family:'Nimbus Roman No9 L';-inkscape-font-specification:NimbusRomNo9L-Regu;writing-mode:lr-tb;fill:#000000;fill-opacity:1;fill-rule:nonzero;stroke:none"
       id="text4419"
       x="83.906609"
       y="-114.18356"><tspan
         x="83.906609 87.887688 92.370895"
         y="-114.18356"
         sodipodi:role="line"
         id="tspan4421">and</tspan></text>
<g
       id="g4423"
       transform="translate(99.37361,113.38656)"><path
         d="m 0,0 19.517,0 0,7.572 L 0,7.572 0,0 Z"
         style="fill:#ffffff;fill-opacity:1;fill-rule:nonzero;stroke:none"
         id="path4425"
         inkscape:connector-curvature="0" /></g><text
       transform="scale(1,-1)"
       style="font-variant:normal;font-size:8.96640015px;font-family:'Nimbus Roman No9 L';-inkscape-font-specification:NimbusRomNo9L-Regu;writing-mode:lr-tb;fill:#000000;fill-opacity:1;fill-rule:nonzero;stroke:none"
       id="text4427"
       x="99.672607"
       y="-114.18356"><tspan
         x="99.672607 103.65369 106.14635 110.12743 114.10851"
         y="-114.18356"
         sodipodi:role="line"
         id="tspan4429">clean</tspan></text>
<g
       id="g4431"
       transform="translate(121.11161,113.38656)"><path
         d="m 0,0 18.53,0 0,7.572 L 0,7.572 0,0 Z"
         style="fill:#ffffff;fill-opacity:1;fill-rule:nonzero;stroke:none"
         id="path4433"
         inkscape:connector-curvature="0" /></g><text
       transform="scale(1,-1)"
       style="font-variant:normal;font-size:8.96640015px;font-family:'Nimbus Roman No9 L';-inkscape-font-specification:NimbusRomNo9L-Regu;writing-mode:lr-tb;fill:#000000;fill-opacity:1;fill-rule:nonzero;stroke:none"
       id="text4435"
       x="121.41061"
       y="-114.18356"><tspan
         x="121.41061 125.89381 130.37701 132.86967 136.85075"
         y="-114.18356"
         sodipodi:role="line"
         id="tspan4437">hotel</tspan></text>
<g
       id="g4439"
       transform="translate(141.86261,113.38656)"><path
         d="m 0,0 7.574,0 0,7.572 L 0,7.572 0,0 Z"
         style="fill:#ffffff;fill-opacity:1;fill-rule:nonzero;stroke:none"
         id="path4441"
         inkscape:connector-curvature="0" /></g><text
       transform="scale(1,-1)"
       style="font-variant:normal;font-size:8.96640015px;font-family:'Nimbus Roman No9 L';-inkscape-font-specification:NimbusRomNo9L-Regu;writing-mode:lr-tb;fill:#000000;fill-opacity:1;fill-rule:nonzero;stroke:none"
       id="text4443"
       x="142.16161"
       y="-114.18356"><tspan
         x="142.16161 144.65427"
         y="-114.18356"
         sodipodi:role="line"
         id="tspan4445">to</tspan></text>
<g
       id="g4447"
       transform="translate(151.65761,111.94356)"><path
         d="m 0,0 15.042,0 0,9.015 L 0,9.015 0,0 Z"
         style="fill:#fffafa;fill-opacity:1;fill-rule:nonzero;stroke:none"
         id="path4449"
         inkscape:connector-curvature="0" /></g><text
       transform="scale(1,-1)"
       style="font-variant:normal;font-size:8.96640015px;font-family:'Nimbus Roman No9 L';-inkscape-font-specification:NimbusRomNo9L-Regu;writing-mode:lr-tb;fill:#000000;fill-opacity:1;fill-rule:nonzero;stroke:none"
       id="text4451"
       x="151.9566"
       y="-114.18356"><tspan
         x="151.9566 155.44453 157.93719 161.91827"
         y="-114.18356"
         sodipodi:role="line"
         id="tspan4453">stay</tspan></text>
<g
       id="g4455"
       transform="translate(168.92161,113.38656)"><path
         d="m 0,0 11.052,0 0,7.572 L 0,7.572 0,0 Z"
         style="fill:#ffffff;fill-opacity:1;fill-rule:nonzero;stroke:none"
         id="path4457"
         inkscape:connector-curvature="0" /></g><text
       transform="scale(1,-1)"
       style="font-variant:normal;font-size:8.96640015px;font-family:'Nimbus Roman No9 L';-inkscape-font-specification:NimbusRomNo9L-Regu;writing-mode:lr-tb;fill:#000000;fill-opacity:1;fill-rule:nonzero;stroke:none"
       id="text4459"
       x="169.22061"
       y="-114.18356"><tspan
         x="169.22061 172.20642 176.68962"
         y="-114.18356"
         sodipodi:role="line"
         id="tspan4461">for</tspan></text>
<g
       id="g4463"
       transform="translate(182.19561,113.38656)"><path
         d="m 0,0 30.805,0 0,7.572 L 0,7.572 0,0 Z"
         style="fill:#fffafa;fill-opacity:1;fill-rule:nonzero;stroke:none"
         id="path4465"
         inkscape:connector-curvature="0" /></g><text
       transform="scale(1,-1)"
       style="font-variant:normal;font-size:8.96640015px;font-family:'Nimbus Roman No9 L';-inkscape-font-specification:NimbusRomNo9L-Regu;writing-mode:lr-tb;fill:#000000;fill-opacity:1;fill-rule:nonzero;stroke:none"
       id="text4467"
       x="182.49461"
       y="-114.18356"><tspan
         x="182.49461 186.79848 191.28168 194.76961 197.26227 201.74547 205.72655 209.21448"
         y="-114.18356"
         sodipodi:role="line"
         id="tspan4469">business</tspan></text>
<g
       id="g4471"
       transform="translate(215.22161,113.38656)"><path
         d="m 0,0 13.545,0 0,7.572 L 0,7.572 0,0 Z"
         style="fill:#ffffff;fill-opacity:1;fill-rule:nonzero;stroke:none"
         id="path4473"
         inkscape:connector-curvature="0" /></g><text
       transform="scale(1,-1)"
       style="font-variant:normal;font-size:8.96640015px;font-family:'Nimbus Roman No9 L';-inkscape-font-specification:NimbusRomNo9L-Regu;writing-mode:lr-tb;fill:#000000;fill-opacity:1;fill-rule:nonzero;stroke:none"
       id="text4475"
       x="215.52061"
       y="-114.18356"><tspan
         x="215.52061 219.50169 223.98489"
         y="-114.18356"
         sodipodi:role="line"
         id="tspan4477">and</tspan></text>
<g
       id="g4479"
       transform="translate(230.98861,113.38656)"><path
         d="m 0,0 24.502,0 0,7.572 L 0,7.572 0,0 Z"
         style="fill:#fff2f2;fill-opacity:1;fill-rule:nonzero;stroke:none"
         id="path4481"
         inkscape:connector-curvature="0" /></g><text
       transform="scale(1,-1)"
       style="font-variant:normal;font-size:8.96640015px;font-family:'Nimbus Roman No9 L';-inkscape-font-specification:NimbusRomNo9L-Regu;writing-mode:lr-tb;fill:#000000;fill-opacity:1;fill-rule:nonzero;stroke:none"
       id="text4483"
       x="231.28661"
       y="-114.18356"><tspan
         x="231.28661 233.77927 237.76035 240.25301 243.74094 248.22414 251.20995"
         y="-114.18356"
         sodipodi:role="line"
         id="tspan4485">leisure</tspan></text>
<g
       id="g4487"
       transform="translate(59.05061,103.42356)"><path
         d="m 0,0 2.839,0 0,7.572 L 0,7.572 0,0 Z"
         style="fill:#ffffff;fill-opacity:1;fill-rule:nonzero;stroke:none"
         id="path4489"
         inkscape:connector-curvature="0" /></g><text
       transform="scale(1,-1)"
       style="font-variant:normal;font-size:8.96640015px;font-family:'Nimbus Roman No9 L';-inkscape-font-specification:NimbusRomNo9L-Regu;writing-mode:lr-tb;fill:#000000;fill-opacity:1;fill-rule:nonzero;stroke:none"
       id="text4491"
       x="59.349609"
       y="-104.22056"><tspan
         x="59.349609"
         y="-104.22056"
         id="tspan4493">.</tspan></text>
<g
       id="g4495"
       transform="translate(65.34761,100.89556)"><path
         d="m 0,0 13.375,0 0,10.1 L 0,10.1 0,0 Z"
         style="fill:#ffffff;fill-opacity:1;fill-rule:nonzero;stroke:none"
         id="path4497"
         inkscape:connector-curvature="0" /></g><text
       transform="scale(1,-1)"
       style="font-variant:normal;font-size:8.96640015px;font-family:'Nimbus Roman No9 L';-inkscape-font-specification:NimbusRomNo9L-Medi;writing-mode:lr-tb;fill:#000000;fill-opacity:1;fill-rule:nonzero;stroke:none"
       id="text4503"
       x="65.646606"
       y="-104.22056"><tspan
         x="65.646606 70.452599 75.43792"
         y="-104.22056"
         sodipodi:role="line"
         id="tspan4505">but</tspan></text>
<g
       id="g4507"
       transform="translate(82.17961,100.89556)"><path
         d="m 0,0 12.55,0 0,10.1 L 0,10.1 0,0 Z"
         style="fill:#fffcfc;fill-opacity:1;fill-rule:nonzero;stroke:none"
         id="path4509"
         inkscape:connector-curvature="0" /></g><text
       transform="scale(1,-1)"
       style="font-variant:normal;font-size:8.96640015px;font-family:'Nimbus Roman No9 L';-inkscape-font-specification:NimbusRomNo9L-Medi;writing-mode:lr-tb;fill:#000000;fill-opacity:1;fill-rule:nonzero;stroke:none"
       id="text4515"
       x="82.478607"
       y="-104.22056"><tspan
         x="82.478607 85.464424 90.449738"
         y="-104.22056"
         sodipodi:role="line"
         id="tspan4517">the</tspan></text>
<g
       id="g4519"
       transform="translate(98.18761,100.89556)"><path
         d="m 0,0 30.984,0 0,10.1 L 0,10.1 0,0 Z"
         style="fill:#ff8a8a;fill-opacity:1;fill-rule:nonzero;stroke:none"
         id="path4521"
         inkscape:connector-curvature="0" /></g><text
       transform="scale(1,-1)"
       style="font-variant:normal;font-size:8.96640015px;font-family:'Nimbus Roman No9 L';-inkscape-font-specification:NimbusRomNo9L-Medi;writing-mode:lr-tb;fill:#000000;fill-opacity:1;fill-rule:nonzero;stroke:none"
       id="text4527"
       x="98.48661"
       y="-104.22056"><tspan
         x="98.48661 100.97927"
         y="-104.22056"
         sodipodi:role="line"
         id="tspan4529">lo</tspan></text>
<text
       transform="scale(1,-1)"
       style="font-variant:normal;font-size:8.96640015px;font-family:'Nimbus Roman No9 L';-inkscape-font-specification:NimbusRomNo9L-Medi;writing-mode:lr-tb;fill:#000000;fill-opacity:1;fill-rule:nonzero;stroke:none"
       id="text4535"
       x="105.46161"
       y="-104.22056"><tspan
         x="105.46161 109.44269"
         y="-104.22056"
         sodipodi:role="line"
         id="tspan4537">ca</tspan></text>
<text
       transform="scale(1,-1)"
       style="font-variant:normal;font-size:8.96640015px;font-family:'Nimbus Roman No9 L';-inkscape-font-specification:NimbusRomNo9L-Medi;writing-mode:lr-tb;fill:#000000;fill-opacity:1;fill-rule:nonzero;stroke:none"
       id="text4543"
       x="113.92661"
       y="-104.22056"><tspan
         x="113.92661 116.91242 119.40508 123.88828"
         y="-104.22056"
         sodipodi:role="line"
         id="tspan4545">tion</tspan></text>
<g
       id="g4547"
       transform="translate(132.62961,100.89556)"><path
         d="m 0,0 6.578,0 0,10.1 L 0,10.1 0,0 Z"
         style="fill:#ffe3e3;fill-opacity:1;fill-rule:nonzero;stroke:none"
         id="path4549"
         inkscape:connector-curvature="0" /></g><text
       transform="scale(1,-1)"
       style="font-variant:normal;font-size:8.96640015px;font-family:'Nimbus Roman No9 L';-inkscape-font-specification:NimbusRomNo9L-Medi;writing-mode:lr-tb;fill:#000000;fill-opacity:1;fill-rule:nonzero;stroke:none"
       id="text4555"
       x="132.9286"
       y="-104.22056"><tspan
         x="132.9286 135.42126"
         y="-104.22056"
         sodipodi:role="line"
         id="tspan4557">is</tspan></text>
<g
       id="g4559"
       transform="translate(142.66561,100.89556)"><path
         d="m 0,0 13.052,0 0,10.1 L 0,10.1 0,0 Z"
         style="fill:#ff4c4c;fill-opacity:1;fill-rule:nonzero;stroke:none"
         id="path4561"
         inkscape:connector-curvature="0" /></g><text
       transform="scale(1,-1)"
       style="font-variant:normal;font-size:8.96640015px;font-family:'Nimbus Roman No9 L';-inkscape-font-specification:NimbusRomNo9L-Medi;writing-mode:lr-tb;fill:#000000;fill-opacity:1;fill-rule:nonzero;stroke:none"
       id="text4567"
       x="142.96461"
       y="-104.22056"><tspan
         x="142.96461 147.94992 152.43312"
         y="-104.22056"
         sodipodi:role="line"
         id="tspan4569">not</tspan></text>
<g
       id="g4571"
       transform="translate(159.17561,100.89556)"><path
         d="m 0,0 19.033,0 0,10.1 L 0,10.1 0,0 Z"
         style="fill:#ff8080;fill-opacity:1;fill-rule:nonzero;stroke:none"
         id="path4573"
         inkscape:connector-curvature="0" /></g><text
       transform="scale(1,-1)"
       style="font-variant:normal;font-size:8.96640015px;font-family:'Nimbus Roman No9 L';-inkscape-font-specification:NimbusRomNo9L-Medi;writing-mode:lr-tb;fill:#000000;fill-opacity:1;fill-rule:nonzero;stroke:none"
       id="text4579"
       x="159.47362"
       y="-104.22056"><tspan
         x="159.47362 163.95682 168.44002 172.92322"
         y="-104.22056"
         sodipodi:role="line"
         id="tspan4581">good</tspan></text>
<g
       id="g4583"
       transform="translate(181.66561,100.89556)"><path
         d="m 0,0 6.076,0 0,10.1 L 0,10.1 0,0 Z"
         style="fill:#fff7f7;fill-opacity:1;fill-rule:nonzero;stroke:none"
         id="path4585"
         inkscape:connector-curvature="0" /></g><text
       transform="scale(1,-1)"
       style="font-variant:normal;font-size:8.96640015px;font-family:'Nimbus Roman No9 L';-inkscape-font-specification:NimbusRomNo9L-Medi;writing-mode:lr-tb;fill:#000000;fill-opacity:1;fill-rule:nonzero;stroke:none"
       id="text4591"
       x="181.96461"
       y="-104.22056"><tspan
         x="181.96461 184.45728"
         y="-104.22056"
         sodipodi:role="line"
         id="tspan4593">if</tspan></text>
<g
       id="g4595"
       transform="translate(191.19961,100.89556)"><path
         d="m 0,0 14.325,0 0,10.1 L 0,10.1 0,0 Z"
         style="fill:#ffffff;fill-opacity:1;fill-rule:nonzero;stroke:none"
         id="path4597"
         inkscape:connector-curvature="0" /></g><text
       transform="scale(1,-1)"
       style="font-variant:normal;font-size:8.96640015px;font-family:'Nimbus Roman No9 L';-inkscape-font-specification:NimbusRomNo9L-Medi;writing-mode:lr-tb;fill:#000000;fill-opacity:1;fill-rule:nonzero;stroke:none"
       id="text4603"
       x="191.49861"
       y="-104.22056"><tspan
         x="191.49861 195.75764 200.24084"
         y="-104.22056"
         sodipodi:role="line"
         id="tspan4605">you</tspan></text>
<g
       id="g4607"
       transform="translate(208.98261,100.89556)"><path
         d="m 0,0 18.53,0 0,10.1 L 0,10.1 0,0 Z"
         style="fill:#fffcfc;fill-opacity:1;fill-rule:nonzero;stroke:none"
         id="path4609"
         inkscape:connector-curvature="0" /></g><text
       transform="scale(1,-1)"
       style="font-variant:normal;font-size:8.96640015px;font-family:'Nimbus Roman No9 L';-inkscape-font-specification:NimbusRomNo9L-Medi;writing-mode:lr-tb;fill:#000000;fill-opacity:1;fill-rule:nonzero;stroke:none"
       id="text4615"
       x="209.28162"
       y="-104.22056"><tspan
         x="209.28162 214.26692 218.24802 222.2291"
         y="-104.22056"
         sodipodi:role="line"
         id="tspan4617">need</tspan></text>
<g
       id="g4619"
       transform="translate(230.97061,100.89556)"><path
         d="m 0,0 24.52,0 0,10.1 L 0,10.1 0,0 Z"
         style="fill:#ffdede;fill-opacity:1;fill-rule:nonzero;stroke:none"
         id="path4621"
         inkscape:connector-curvature="0" /></g><text
       transform="scale(1,-1)"
       style="font-variant:normal;font-size:8.96640015px;font-family:'Nimbus Roman No9 L';-inkscape-font-specification:NimbusRomNo9L-Medi;writing-mode:lr-tb;fill:#000000;fill-opacity:1;fill-rule:nonzero;stroke:none"
       id="text4627"
       x="231.26862"
       y="-104.22056"><tspan
         x="231.26862 236.25392 241.23924"
         y="-104.22056"
         sodipodi:role="line"
         id="tspan4629">pub</tspan></text>
<text
       transform="scale(1,-1)"
       style="font-variant:normal;font-size:8.96640015px;font-family:'Nimbus Roman No9 L';-inkscape-font-specification:NimbusRomNo9L-Medi;writing-mode:lr-tb;fill:#000000;fill-opacity:1;fill-rule:nonzero;stroke:none"
       id="text4635"
       x="246.22461"
       y="-104.22056"><tspan
         x="246.22461 248.71727 251.20993"
         y="-104.22056"
         sodipodi:role="line"
         id="tspan4637">lic</tspan></text>
<g
       id="g4639"
       transform="translate(59.05061,89.79956)"><path
         d="m 0,0 36.956,0 0,10.1 L 0,10.1 0,0 Z"
         style="fill:#ffe0e0;fill-opacity:1;fill-rule:nonzero;stroke:none"
         id="path4641"
         inkscape:connector-curvature="0" /></g><text
       transform="scale(1,-1)"
       style="font-variant:normal;font-size:8.96640015px;font-family:'Nimbus Roman No9 L';-inkscape-font-specification:NimbusRomNo9L-Medi;writing-mode:lr-tb;fill:#000000;fill-opacity:1;fill-rule:nonzero;stroke:none"
       id="text4647"
       x="59.349609"
       y="-93.124557"><tspan
         x="59.349609 62.335423 66.316505 70.799706 75.785019"
         y="-93.124557"
         sodipodi:role="line"
         id="tspan4649">trans</tspan></text>
<text
       transform="scale(1,-1)"
       style="font-variant:normal;font-size:8.96640015px;font-family:'Nimbus Roman No9 L';-inkscape-font-specification:NimbusRomNo9L-Medi;writing-mode:lr-tb;fill:#000000;fill-opacity:1;fill-rule:nonzero;stroke:none"
       id="text4655"
       x="79.272614"
       y="-93.124557"><tspan
         x="79.272614 84.257927 88.741127 92.722214"
         y="-93.124557"
         sodipodi:role="line"
         id="tspan4657">port</tspan></text>
<g
       id="g4659"
       transform="translate(98.38961,92.32756)"><path
         d="m 0,0 2.839,0 0,7.572 L 0,7.572 0,0 Z"
         style="fill:#ffffff;fill-opacity:1;fill-rule:nonzero;stroke:none"
         id="path4661"
         inkscape:connector-curvature="0" /></g><text
       transform="scale(1,-1)"
       style="font-variant:normal;font-size:8.96640015px;font-family:'Nimbus Roman No9 L';-inkscape-font-specification:NimbusRomNo9L-Regu;writing-mode:lr-tb;fill:#000000;fill-opacity:1;fill-rule:nonzero;stroke:none"
       id="text4663"
       x="98.688606"
       y="-93.124557"><tspan
         x="98.688606"
         y="-93.124557"
         id="tspan4665">.</tspan></text>
<g
       id="g4667"
       transform="translate(103.61161,92.32756)"><path
         d="m 0,0 5.583,0 0,7.572 L 0,7.572 0,0 Z"
         style="fill:#fffcfc;fill-opacity:1;fill-rule:nonzero;stroke:none"
         id="path4669"
         inkscape:connector-curvature="0" /></g><text
       transform="scale(1,-1)"
       style="font-variant:normal;font-size:8.96640015px;font-family:'Nimbus Roman No9 L';-inkscape-font-specification:NimbusRomNo9L-Regu;writing-mode:lr-tb;fill:#000000;fill-opacity:1;fill-rule:nonzero;stroke:none"
       id="text4671"
       x="103.91061"
       y="-93.124557"><tspan
         x="103.91061 106.40327"
         y="-93.124557"
         sodipodi:role="line"
         id="tspan4673">it</tspan></text>
<g
       id="g4675"
       transform="translate(111.57761,92.32756)"><path
         d="m 0,0 16.54,0 0,7.572 L 0,7.572 0,0 Z"
         style="fill:#fff7f7;fill-opacity:1;fill-rule:nonzero;stroke:none"
         id="path4677"
         inkscape:connector-curvature="0" /></g><text
       transform="scale(1,-1)"
       style="font-variant:normal;font-size:8.96640015px;font-family:'Nimbus Roman No9 L';-inkscape-font-specification:NimbusRomNo9L-Regu;writing-mode:lr-tb;fill:#000000;fill-opacity:1;fill-rule:nonzero;stroke:none"
       id="text4679"
       x="111.87661"
       y="-93.124557"><tspan
         x="111.87661 114.36927 118.85247 123.33567"
         y="-93.124557"
         sodipodi:role="line"
         id="tspan4681">took</tspan></text>
<g
       id="g4683"
       transform="translate(130.50061,92.32756)"><path
         d="m 0,0 12.057,0 0,7.572 L 0,7.572 0,0 Z"
         style="fill:#fff0f0;fill-opacity:1;fill-rule:nonzero;stroke:none"
         id="path4685"
         inkscape:connector-curvature="0" /></g><text
       transform="scale(1,-1)"
       style="font-variant:normal;font-size:8.96640015px;font-family:'Nimbus Roman No9 L';-inkscape-font-specification:NimbusRomNo9L-Regu;writing-mode:lr-tb;fill:#000000;fill-opacity:1;fill-rule:nonzero;stroke:none"
       id="text4687"
       x="130.79961"
       y="-93.124557"><tspan
         x="130.79961 133.29227 137.77547"
         y="-93.124557"
         sodipodi:role="line"
         id="tspan4689">too</tspan></text>
<g
       id="g4691"
       transform="translate(144.94061,90.88456)"><path
         d="m 0,0 16.54,0 0,9.015 L 0,9.015 0,0 Z"
         style="fill:#ffcccc;fill-opacity:1;fill-rule:nonzero;stroke:none"
         id="path4693"
         inkscape:connector-curvature="0" /></g><text
       transform="scale(1,-1)"
       style="font-variant:normal;font-size:8.96640015px;font-family:'Nimbus Roman No9 L';-inkscape-font-specification:NimbusRomNo9L-Regu;writing-mode:lr-tb;fill:#000000;fill-opacity:1;fill-rule:nonzero;stroke:none"
       id="text4695"
       x="145.23961"
       y="-93.124557"><tspan
         x="145.23961 147.73227 152.21547 156.69867"
         y="-93.124557"
         sodipodi:role="line"
         id="tspan4697">long</tspan></text>
<g
       id="g4699"
       transform="translate(163.86361,92.32756)"><path
         d="m 0,0 11.052,0 0,7.572 L 0,7.572 0,0 Z"
         style="fill:#fff7f7;fill-opacity:1;fill-rule:nonzero;stroke:none"
         id="path4701"
         inkscape:connector-curvature="0" /></g><text
       transform="scale(1,-1)"
       style="font-variant:normal;font-size:8.96640015px;font-family:'Nimbus Roman No9 L';-inkscape-font-specification:NimbusRomNo9L-Regu;writing-mode:lr-tb;fill:#000000;fill-opacity:1;fill-rule:nonzero;stroke:none"
       id="text4703"
       x="164.16261"
       y="-93.124557"><tspan
         x="164.16261 167.14842 171.63162"
         y="-93.124557"
         sodipodi:role="line"
         id="tspan4705">for</tspan></text>
<g
       id="g4707"
       transform="translate(177.29861,90.88456)"><path
         d="m 0,0 32.473,0 0,9.015 L 0,9.015 0,0 Z"
         style="fill:#ffd9d9;fill-opacity:1;fill-rule:nonzero;stroke:none"
         id="path4709"
         inkscape:connector-curvature="0" /></g><text
       transform="scale(1,-1)"
       style="font-variant:normal;font-size:8.96640015px;font-family:'Nimbus Roman No9 L';-inkscape-font-specification:NimbusRomNo9L-Regu;writing-mode:lr-tb;fill:#000000;fill-opacity:1;fill-rule:nonzero;stroke:none"
       id="text4711"
       x="177.59761"
       y="-93.124557"><tspan
         x="177.59761 180.09027 183.07608 187.05716 191.54036 195.02829 199.51149 203.99469 206.9805"
         y="-93.124557"
         sodipodi:role="line"
         id="tspan4713">transport</tspan></text>
<g
       id="g4715"
       transform="translate(212.15461,92.32756)"><path
         d="m 0,0 13.545,0 0,7.572 L 0,7.572 0,0 Z"
         style="fill:#fff0f0;fill-opacity:1;fill-rule:nonzero;stroke:none"
         id="path4717"
         inkscape:connector-curvature="0" /></g><text
       transform="scale(1,-1)"
       style="font-variant:normal;font-size:8.96640015px;font-family:'Nimbus Roman No9 L';-inkscape-font-specification:NimbusRomNo9L-Regu;writing-mode:lr-tb;fill:#000000;fill-opacity:1;fill-rule:nonzero;stroke:none"
       id="text4719"
       x="212.45361"
       y="-93.124557"><tspan
         x="212.45361 216.43469 220.91789"
         y="-93.124557"
         sodipodi:role="line"
         id="tspan4721">and</tspan></text>
<g
       id="g4723"
       transform="translate(228.08261,90.88456)"><path
         d="m 0,0 27.407,0 0,9.015 L 0,9.015 0,0 Z"
         style="fill:#ffe0e0;fill-opacity:1;fill-rule:nonzero;stroke:none"
         id="path4725"
         inkscape:connector-curvature="0" /></g><text
       transform="scale(1,-1)"
       style="font-variant:normal;font-size:8.96640015px;font-family:'Nimbus Roman No9 L';-inkscape-font-specification:NimbusRomNo9L-Regu;writing-mode:lr-tb;fill:#000000;fill-opacity:1;fill-rule:nonzero;stroke:none"
       id="text4727"
       x="228.38161"
       y="-93.124557"><tspan
         x="228.38161 234.76569 238.74677 241.23943 243.73209 246.22475 250.70795"
         y="-93.124557"
         sodipodi:role="line"
         id="tspan4729">waiting</tspan></text>
<g
       id="g4731"
       transform="translate(59.05061,81.23156)"><path
         d="m 0,0 11.052,0 0,7.572 L 0,7.572 0,0 Z"
         style="fill:#fffcfc;fill-opacity:1;fill-rule:nonzero;stroke:none"
         id="path4733"
         inkscape:connector-curvature="0" /></g><text
       transform="scale(1,-1)"
       style="font-variant:normal;font-size:8.96640015px;font-family:'Nimbus Roman No9 L';-inkscape-font-specification:NimbusRomNo9L-Regu;writing-mode:lr-tb;fill:#000000;fill-opacity:1;fill-rule:nonzero;stroke:none"
       id="text4735"
       x="59.349609"
       y="-82.028557"><tspan
         x="59.349609 62.335423 66.818619"
         y="-82.028557"
         sodipodi:role="line"
         id="tspan4737">for</tspan></text>
<g
       id="g4739"
       transform="translate(72.34461,81.23156)"><path
         d="m 0,0 12.873,0 0,7.572 L 0,7.572 0,0 Z"
         style="fill:#ffcccc;fill-opacity:1;fill-rule:nonzero;stroke:none"
         id="path4741"
         inkscape:connector-curvature="0" /></g><text
       transform="scale(1,-1)"
       style="font-variant:normal;font-size:8.96640015px;font-family:'Nimbus Roman No9 L';-inkscape-font-specification:NimbusRomNo9L-Regu;writing-mode:lr-tb;fill:#000000;fill-opacity:1;fill-rule:nonzero;stroke:none"
       id="text4743"
       x="72.643608"
       y="-82.028557"><tspan
         x="72.643608 76.947479 81.430679"
         y="-82.028557"
         sodipodi:role="line"
         id="tspan4745">bus</tspan></text>
<g
       id="g4747"
       transform="translate(87.45861,81.23156)"><path
         d="m 0,0 2.839,0 0,7.572 L 0,7.572 0,0 Z"
         style="fill:#ffffff;fill-opacity:1;fill-rule:nonzero;stroke:none"
         id="path4749"
         inkscape:connector-curvature="0" /></g><text
       transform="scale(1,-1)"
       style="font-variant:normal;font-size:8.96640015px;font-family:'Nimbus Roman No9 L';-inkscape-font-specification:NimbusRomNo9L-Regu;writing-mode:lr-tb;fill:#000000;fill-opacity:1;fill-rule:nonzero;stroke:none"
       id="text4751"
       x="87.757607"
       y="-82.028557"><tspan
         x="87.757607"
         y="-82.028557"
         id="tspan4753">.</tspan></text>
<g
       id="g4755"
       transform="translate(92.53961,81.23156)"><path
         d="m 0,0 11.877,0 0,7.572 L 0,7.572 0,0 Z"
         style="fill:#ffffff;fill-opacity:1;fill-rule:nonzero;stroke:none"
         id="path4757"
         inkscape:connector-curvature="0" /></g><text
       transform="scale(1,-1)"
       style="font-variant:normal;font-size:8.96640015px;font-family:'Nimbus Roman No9 L';-inkscape-font-specification:NimbusRomNo9L-Regu;writing-mode:lr-tb;fill:#000000;fill-opacity:1;fill-rule:nonzero;stroke:none"
       id="text4759"
       x="92.838608"
       y="-82.028557"><tspan
         x="92.838608 97.142479 101.62568"
         y="-82.028557"
         sodipodi:role="line"
         id="tspan4761">but</tspan></text>
<g
       id="g4763"
       transform="translate(106.65861,81.23156)"><path
         d="m 0,0 11.555,0 0,7.572 L 0,7.572 0,0 Z"
         style="fill:#ffffff;fill-opacity:1;fill-rule:nonzero;stroke:none"
         id="path4765"
         inkscape:connector-curvature="0" /></g><text
       transform="scale(1,-1)"
       style="font-variant:normal;font-size:8.96640015px;font-family:'Nimbus Roman No9 L';-inkscape-font-specification:NimbusRomNo9L-Regu;writing-mode:lr-tb;fill:#000000;fill-opacity:1;fill-rule:nonzero;stroke:none"
       id="text4767"
       x="106.95761"
       y="-82.028557"><tspan
         x="106.95761 109.45027 113.93347"
         y="-82.028557"
         sodipodi:role="line"
         id="tspan4769">the</tspan></text>
<g
       id="g4771"
       transform="translate(120.45461,79.78856)"><path
         d="m 0,0 38.462,0 0,9.015 L 0,9.015 0,0 Z"
         style="fill:#ffffff;fill-opacity:1;fill-rule:nonzero;stroke:none"
         id="path4773"
         inkscape:connector-curvature="0" /></g><text
       transform="scale(1,-1)"
       style="font-variant:normal;font-size:8.96640015px;font-family:'Nimbus Roman No9 L';-inkscape-font-specification:NimbusRomNo9L-Regu;writing-mode:lr-tb;fill:#000000;fill-opacity:1;fill-rule:nonzero;stroke:none"
       id="text4775"
       x="120.75361"
       y="-82.028557"><tspan
         x="120.75361 124.24154 130.71529 133.20793 140.18379 147.15965 149.65231 154.13551"
         y="-82.028557"
         sodipodi:role="line"
         id="tspan4777">swimming</tspan></text>
<g
       id="g4779"
       transform="translate(161.15861,79.78856)"><path
         d="m 0,0 16.54,0 0,9.015 L 0,9.015 0,0 Z"
         style="fill:#ffffff;fill-opacity:1;fill-rule:nonzero;stroke:none"
         id="path4781"
         inkscape:connector-curvature="0" /></g><text
       transform="scale(1,-1)"
       style="font-variant:normal;font-size:8.96640015px;font-family:'Nimbus Roman No9 L';-inkscape-font-specification:NimbusRomNo9L-Regu;writing-mode:lr-tb;fill:#000000;fill-opacity:1;fill-rule:nonzero;stroke:none"
       id="text4783"
       x="161.45761"
       y="-82.028557"><tspan
         x="161.45761 165.94081 170.42401 174.90721"
         y="-82.028557"
         sodipodi:role="line"
         id="tspan4785">pool</tspan></text>
<g
       id="g4787"
       transform="translate(179.93961,81.23156)"><path
         d="m 0,0 20.028,0 0,7.572 L 0,7.572 0,0 Z"
         style="fill:#ffffff;fill-opacity:1;fill-rule:nonzero;stroke:none"
         id="path4789"
         inkscape:connector-curvature="0" /></g><text
       transform="scale(1,-1)"
       style="font-variant:normal;font-size:8.96640015px;font-family:'Nimbus Roman No9 L';-inkscape-font-specification:NimbusRomNo9L-Regu;writing-mode:lr-tb;fill:#000000;fill-opacity:1;fill-rule:nonzero;stroke:none"
       id="text4791"
       x="180.23862"
       y="-82.028557"><tspan
         x="180.23862 182.73126 187.21446 191.69766 196.18086"
         y="-82.028557"
         sodipodi:role="line"
         id="tspan4793">looks</tspan></text>
<g
       id="g4795"
       transform="translate(202.20961,79.78856)"><path
         d="m 0,0 18.531,0 0,9.015 L 0,9.015 0,0 Z"
         style="fill:#fff7f7;fill-opacity:1;fill-rule:nonzero;stroke:none"
         id="path4797"
         inkscape:connector-curvature="0" /></g><text
       transform="scale(1,-1)"
       style="font-variant:normal;font-size:8.96640015px;font-family:'Nimbus Roman No9 L';-inkscape-font-specification:NimbusRomNo9L-Regu;writing-mode:lr-tb;fill:#000000;fill-opacity:1;fill-rule:nonzero;stroke:none"
       id="text4799"
       x="202.50861"
       y="-82.028557"><tspan
         x="202.50861 206.99181 211.47501 215.95821"
         y="-82.028557"
         sodipodi:role="line"
         id="tspan4801">good</tspan></text>
<g
       id="g4803"
       transform="translate(222.98161,81.23156)"><path
         d="m 0,0 2.839,0 0,7.572 L 0,7.572 0,0 Z"
         style="fill:#ffffff;fill-opacity:1;fill-rule:nonzero;stroke:none"
         id="path4805"
         inkscape:connector-curvature="0" /></g><text
       transform="scale(1,-1)"
       style="font-variant:normal;font-size:8.96640015px;font-family:'Nimbus Roman No9 L';-inkscape-font-specification:NimbusRomNo9L-Regu;writing-mode:lr-tb;fill:#000000;fill-opacity:1;fill-rule:nonzero;stroke:none"
       id="text4807"
       x="223.28061"
       y="-82.028557"><tspan
         x="223.28061"
         y="-82.028557"
         id="tspan4809">.</tspan></text>
</g></svg>